<svg width="35" height="15" viewBox="0 0 35 15" xmlns="http://www.w3.org/2000/svg">
<g clip-path="url(#clip0_114:3)">
<path d="M23.7232 8.11941V4.51491C23.7232 3.56483 22.9531 2.79467 22.003 2.79467H12.997C12.0469 2.79467 11.2768 3.56483 11.2768 4.51491V6.65326L14.6757 4.41736L18.7435 8.04069L21.6115 6.56634L23.7232 8.11941ZM23.7058 10.7312L21.5656 9.20094L18.7171 10.7129L14.6303 7.32684L11.2768 9.33092V10.4851C11.2768 11.4352 12.0469 12.2054 12.997 12.2054H22.003C22.8695 12.2054 23.5864 11.5647 23.7058 10.7312ZM12.997 0.517883H22.003C24.2104 0.517883 26 2.30744 26 4.51491V10.4851C26 12.6926 24.2104 14.4822 22.003 14.4822H12.997C10.7896 14.4822 9 12.6926 9 10.4851V4.51491C9 2.30744 10.7896 0.517883 12.997 0.517883Z" />
</g>
<path d="M6.14135 6.92543L0 6.92543V7.04001V7.29218V7.81501V8.04447L6.12759 8.06772L5.23878 9.03317C5.14347 9.141 5.09086 9.28516 5.09227 9.43467C5.09367 9.58419 5.14897 9.72715 5.24628 9.83285C5.3436 9.93854 5.47517 9.99855 5.61274 9.99997C5.75032 10.0014 5.88292 9.94413 5.98207 9.84047L7.84621 7.81501C7.90814 7.74765 7.95359 7.66454 7.97843 7.57323C8.00327 7.48192 8.00672 7.3853 7.98845 7.29218C7.97018 7.19905 7.93077 7.11236 7.87382 7.04001C7.81687 6.96765 7.74417 6.91192 7.66235 6.87788L6.0858 5.1655C5.98123 5.05743 5.84194 4.99805 5.69765 5.00005C5.55336 5.00204 5.41551 5.06525 5.31351 5.17618C5.2115 5.28711 5.15343 5.43698 5.15169 5.5938C5.14994 5.75061 5.20466 5.90196 5.30416 6.01554L6.14135 6.92543Z" />
<path d="M28.8586 8.07457H35V7.95999V7.70782V7.18499V6.95553L28.8724 6.93228L29.7612 5.96683C29.8565 5.859 29.9091 5.71484 29.9077 5.56533C29.9063 5.41581 29.851 5.27285 29.7537 5.16715C29.6564 5.06146 29.5248 5.00145 29.3873 5.00003C29.2497 4.9986 29.1171 5.05587 29.0179 5.15953L27.1538 7.18499C27.0919 7.25235 27.0464 7.33546 27.0216 7.42677C26.9967 7.51808 26.9933 7.6147 27.0116 7.70782C27.0298 7.80095 27.0692 7.88764 27.1262 7.95999C27.1831 8.03235 27.2558 8.08808 27.3377 8.12212L28.9142 9.8345C29.0188 9.94257 29.1581 10.0019 29.3023 9.99995C29.4466 9.99796 29.5845 9.93475 29.6865 9.82382C29.7885 9.71289 29.8466 9.56302 29.8483 9.4062C29.8501 9.24939 29.7953 9.09804 29.6958 8.98446L28.8586 8.07457Z" />
<defs>
<clipPath id="clip0_114:3">
<rect width="17" height="15" transform="translate(9)"/>
</clipPath>
</defs>
</svg>
