<svg width="56" height="15" viewBox="0 0 56 15" fill="none" xmlns="http://www.w3.org/2000/svg">
<g clip-path="url(#clip0_113:52)">
<path d="M33.7232 8.11941V4.51491C33.7232 3.56483 32.953 2.79467 32.0029 2.79467H22.997C22.0469 2.79467 21.2767 3.56483 21.2767 4.51491V6.65326L24.6757 4.41736L28.7434 8.04069L31.6115 6.56634L33.7232 8.11941ZM33.7057 10.7312L31.5655 9.20094L28.717 10.7129L24.6303 7.32684L21.2767 9.33092V10.4851C21.2767 11.4352 22.0469 12.2054 22.997 12.2054H32.0029C32.8694 12.2054 33.5863 11.5647 33.7057 10.7312V10.7312ZM22.997 0.517883H32.0029C34.2104 0.517883 35.9999 2.30744 35.9999 4.51491V10.4851C35.9999 12.6926 34.2104 14.4822 32.0029 14.4822H22.997C20.7895 14.4822 18.9999 12.6926 18.9999 10.4851V4.51491C18.9999 2.30744 20.7895 0.517883 22.997 0.517883Z" fill="black"/>
</g>
<path d="M42.7808 8.75458H55.2735V8.54013V8.06815V7.08958V6.6601L42.8088 6.61658L44.6168 4.80958C44.8107 4.60776 44.9177 4.33795 44.9148 4.0581C44.912 3.77825 44.7995 3.51068 44.6015 3.31285C44.4036 3.11502 44.1359 3.00272 43.8561 3.00005C43.5762 2.99738 43.3065 3.10456 43.1048 3.29858L39.3128 7.08958C39.1868 7.21565 39.0943 7.37121 39.0438 7.54211C38.9933 7.71302 38.9863 7.89385 39.0234 8.06815C39.0606 8.24245 39.1408 8.4047 39.2566 8.54013C39.3725 8.67556 39.5203 8.77987 39.6868 8.84358L42.8938 12.0486C43.1065 12.2509 43.3898 12.362 43.6834 12.3583C43.9769 12.3545 44.2573 12.2362 44.4648 12.0286C44.6723 11.821 44.7904 11.5405 44.794 11.247C44.7975 10.9534 44.6862 10.6702 44.4838 10.4576L42.7808 8.75458Z" fill="black"/>
<path d="M12.4927 6.60375L-2.47955e-05 6.60375V6.81821V7.29019V8.26875V8.69823L12.4647 8.74175L10.6567 10.5488C10.4628 10.7506 10.3558 11.0204 10.3586 11.3002C10.3615 11.5801 10.474 11.8477 10.6719 12.0455C10.8699 12.2433 11.1375 12.3556 11.4174 12.3583C11.6972 12.361 11.967 12.2538 12.1687 12.0598L15.9607 8.26875C16.0866 8.14269 16.1791 7.98713 16.2296 7.81622C16.2802 7.64532 16.2872 7.46449 16.25 7.29019C16.2128 7.11588 16.1327 6.95364 16.0168 6.81821C15.901 6.68278 15.7531 6.57847 15.5867 6.51475L12.3797 3.30975C12.1669 3.10748 11.8836 2.99635 11.5901 3.00008C11.2966 3.00382 11.0162 3.12212 10.8087 3.32975C10.6012 3.53737 10.483 3.81787 10.4795 4.11138C10.4759 4.40489 10.5872 4.68817 10.7897 4.90075L12.4927 6.60375Z" fill="black"/>
<defs>
<clipPath id="clip0_113:52">
<rect width="17" height="15" fill="white" transform="translate(18.9999)"/>
</clipPath>
</defs>
</svg>
