<svg width="37" height="15" viewBox="0 0 37 15" xmlns="http://www.w3.org/2000/svg">
<g clip-path="url(#clip0_113:50)">
<path d="M14.7232 8.11941V4.51491C14.7232 3.56483 13.9531 2.79467 13.003 2.79467H3.99702C3.04695 2.79467 2.27679 3.56483 2.27679 4.51491V6.65326L5.67572 4.41736L9.74348 8.04069L12.6115 6.56634L14.7232 8.11941ZM14.7058 10.7312L12.5656 9.20094L9.71707 10.7129L5.63034 7.32684L2.27679 9.33092V10.4851C2.27679 11.4352 3.04695 12.2054 3.99702 12.2054H13.003C13.8695 12.2054 14.5864 11.5647 14.7058 10.7312V10.7312ZM3.99702 0.517883H13.003C15.2104 0.517883 17 2.30744 17 4.51491V10.4851C17 12.6926 15.2104 14.4822 13.003 14.4822H3.99702C1.78955 14.4822 0 12.6926 0 10.4851V4.51491C0 2.30744 1.78955 0.517883 3.99702 0.517883Z"/>
</g>
<path d="M23.7808 8.75458H36.2735V8.54013V8.06815V7.08958V6.6601L23.8088 6.61658L25.6168 4.80958C25.8107 4.60776 25.9177 4.33795 25.9149 4.0581C25.912 3.77825 25.7995 3.51068 25.6016 3.31285C25.4036 3.11502 25.136 3.00272 24.8561 3.00005C24.5763 2.99738 24.3065 3.10456 24.1048 3.29858L20.3128 7.08958C20.1869 7.21565 20.0944 7.37121 20.0439 7.54211C19.9933 7.71302 19.9863 7.89385 20.0235 8.06815C20.0607 8.24245 20.1408 8.4047 20.2567 8.54013C20.3725 8.67556 20.5204 8.77987 20.6868 8.84358L23.8938 12.0486C24.1066 12.2509 24.3899 12.362 24.6834 12.3583C24.9769 12.3545 25.2573 12.2362 25.4648 12.0286C25.6723 11.821 25.7905 11.5405 25.794 11.247C25.7976 10.9534 25.6863 10.6702 25.4838 10.4576L23.7808 8.75458Z" />
<defs>
<clipPath id="clip0_113:50">
<rect width="17" height="15" />
</clipPath>
</defs>
</svg>
