<svg width="36" height="15" viewBox="0 0 36 15" xmlns="http://www.w3.org/2000/svg">
<g clip-path="url(#clip0_113:51)">
<path d="M33.7232 8.11941V4.51491C33.7232 3.56483 32.953 2.79467 32.0029 2.79467H22.997C22.0469 2.79467 21.2767 3.56483 21.2767 4.51491V6.65326L24.6757 4.41736L28.7434 8.04069L31.6115 6.56634L33.7232 8.11941ZM33.7057 10.7312L31.5655 9.20094L28.717 10.7129L24.6303 7.32684L21.2767 9.33092V10.4851C21.2767 11.4352 22.0469 12.2054 22.997 12.2054H32.0029C32.8694 12.2054 33.5863 11.5647 33.7057 10.7312V10.7312ZM22.997 0.517883H32.0029C34.2104 0.517883 35.9999 2.30744 35.9999 4.51491V10.4851C35.9999 12.6926 34.2104 14.4822 32.0029 14.4822H22.997C20.7895 14.4822 18.9999 12.6926 18.9999 10.4851V4.51491C18.9999 2.30744 20.7895 0.517883 22.997 0.517883Z" />
</g>
<path d="M12.4927 6.60375L-2.47955e-05 6.60375V6.81821V7.29019V8.26875V8.69823L12.4647 8.74175L10.6567 10.5488C10.4628 10.7506 10.3558 11.0204 10.3586 11.3002C10.3615 11.5801 10.474 11.8477 10.6719 12.0455C10.8699 12.2433 11.1375 12.3556 11.4174 12.3583C11.6972 12.361 11.967 12.2538 12.1687 12.0598L15.9607 8.26875C16.0866 8.14269 16.1791 7.98713 16.2296 7.81622C16.2802 7.64532 16.2872 7.46449 16.25 7.29019C16.2128 7.11588 16.1327 6.95364 16.0168 6.81821C15.901 6.68278 15.7531 6.57847 15.5867 6.51475L12.3797 3.30975C12.1669 3.10748 11.8836 2.99635 11.5901 3.00008C11.2966 3.00382 11.0162 3.12212 10.8087 3.32975C10.6012 3.53737 10.483 3.81787 10.4795 4.11138C10.4759 4.40489 10.5872 4.68817 10.7897 4.90075L12.4927 6.60375Z"/>
<defs>
<clipPath id="clip0_113:51">
<rect width="17" height="15" transform="translate(18.9999)"/>
</clipPath>
</defs>
</svg>
